<svg width="138" height="28" viewBox="0 0 138 28" fill="none" xmlns="http://www.w3.org/2000/svg">
<path d="M13.6972 28L5.40679 0.736842L0 7.36842L5.40679 19.1579L13.6972 28Z" fill="url(#paint0_linear)"/>
<path d="M11.5345 9.57895L8.65087 0L15.4995 2.94737L13.3368 10.3158L11.5345 9.57895Z" fill="url(#paint1_linear)"/>
<path d="M16.5808 11.4211L19.104 2.94737L26.6735 1.10526L30.278 9.21053L25.9526 15.1053L16.5808 11.4211Z" fill="url(#paint2_linear)"/>
<path d="M24.1503 18.0526L12.9763 13.6316L17.3017 27.6316L24.1503 18.0526Z" fill="url(#paint3_linear)"/>
<path d="M41.5084 15.9269L39.9208 17.6816V22.0264H36.8679V6.81952H39.9208V13.7127L41.2641 11.8223L45.0396 6.81952H48.7947L43.5335 13.577L48.9473 22.0264H45.3144L41.5084 15.9269ZM56.2844 22.0264C56.1488 21.7548 56.0504 21.4171 55.9893 21.0133C55.277 21.828 54.351 22.2352 53.2112 22.2352C52.1325 22.2352 51.2369 21.915 50.5247 21.2744C49.8191 20.6338 49.4663 19.8261 49.4663 18.8514C49.4663 17.6537 49.8971 16.7346 50.7587 16.094C51.6271 15.4534 52.8787 15.1297 54.5138 15.1228H55.8672V14.4752C55.8672 13.953 55.735 13.5352 55.4704 13.2219C55.2125 12.9085 54.8021 12.7519 54.239 12.7519C53.7437 12.7519 53.3537 12.8737 53.0687 13.1174C52.7905 13.3611 52.6515 13.6954 52.6515 14.1201H49.7105C49.7105 13.4656 49.9073 12.8598 50.3008 12.3028C50.6942 11.7457 51.2505 11.3106 51.9696 10.9972C52.6888 10.6769 53.4961 10.5168 54.3916 10.5168C55.7485 10.5168 56.8238 10.8684 57.6176 11.5717C58.4181 12.2679 58.8184 13.2497 58.8184 14.5169V19.4153C58.8251 20.4876 58.971 21.2988 59.256 21.8488V22.0264H56.2844ZM53.8523 19.9271C54.2865 19.9271 54.6867 19.8296 55.0531 19.6347C55.4194 19.4327 55.6909 19.1647 55.8672 18.8304V16.8878H54.7682C53.296 16.8878 52.5124 17.41 52.4175 18.4544L52.4073 18.632C52.4073 19.008 52.5362 19.3178 52.7939 19.5615C53.0518 19.8053 53.4045 19.9271 53.8523 19.9271ZM67.2648 13.5561C66.8645 13.5004 66.5117 13.4725 66.2064 13.4725C65.0938 13.4725 64.3645 13.859 64.0185 14.6318V22.0264H61.0775V10.7257H63.8557L63.9371 12.073C64.5273 11.0355 65.3449 10.5168 66.3896 10.5168C66.7152 10.5168 67.0205 10.5621 67.3054 10.6526L67.2648 13.5561ZM68.028 16.2924C68.028 14.5309 68.4113 13.1279 69.1779 12.0834C69.9514 11.039 71.0063 10.5168 72.3428 10.5168C73.4147 10.5168 74.3 10.9276 74.9989 11.7492V5.98398H77.95V22.0264H75.294L75.1515 20.8253C74.4188 21.7653 73.4758 22.2352 72.3224 22.2352C71.0266 22.2352 69.9853 21.7131 69.1983 20.6686C68.4181 19.6172 68.028 18.1585 68.028 16.2924ZM70.969 16.5118C70.969 17.5702 71.1487 18.3813 71.5083 18.9453C71.8679 19.5093 72.3903 19.7913 73.0755 19.7913C73.9846 19.7913 74.6257 19.3979 74.9989 18.6111V14.1514C74.6325 13.3646 73.9982 12.9712 73.0958 12.9712C71.6779 12.9712 70.969 14.1514 70.969 16.5118ZM83.3333 22.0264H80.3822V10.7257H83.3333V22.0264ZM80.2092 7.80128C80.2092 7.3487 80.355 6.97619 80.6468 6.68374C80.9452 6.3913 81.3489 6.24509 81.8577 6.24509C82.3597 6.24509 82.7601 6.3913 83.0585 6.68374C83.357 6.97619 83.5063 7.3487 83.5063 7.80128C83.5063 8.26083 83.3536 8.63683 83.0483 8.92926C82.7498 9.2217 82.353 9.36793 81.8577 9.36793C81.3624 9.36793 80.9622 9.2217 80.6569 8.92926C80.3584 8.63683 80.2092 8.26083 80.2092 7.80128ZM92.146 22.0264C92.0103 21.7548 91.9119 21.4171 91.8509 21.0133C91.1386 21.828 90.2125 22.2352 89.0728 22.2352C87.994 22.2352 87.0985 21.915 86.3862 21.2744C85.6807 20.6338 85.3279 19.8261 85.3279 18.8514C85.3279 17.6537 85.7587 16.7346 86.6203 16.094C87.4887 15.4534 88.7403 15.1297 90.3754 15.1228H91.7288V14.4752C91.7288 13.953 91.5965 13.5352 91.3319 13.2219C91.0741 12.9085 90.6637 12.7519 90.1006 12.7519C89.6053 12.7519 89.2153 12.8737 88.9303 13.1174C88.6521 13.3611 88.5131 13.6954 88.5131 14.1201H85.5721C85.5721 13.4656 85.7689 12.8598 86.1623 12.3028C86.5558 11.7457 87.1121 11.3106 87.8312 10.9972C88.5504 10.6769 89.3577 10.5168 90.2532 10.5168C91.6101 10.5168 92.6854 10.8684 93.4791 11.5717C94.2797 12.2679 94.68 13.2497 94.68 14.5169V19.4153C94.6867 20.4876 94.8326 21.2988 95.1176 21.8488V22.0264H92.146ZM89.7139 19.9271C90.1481 19.9271 90.5483 19.8296 90.9147 19.6347C91.281 19.4327 91.5524 19.1647 91.7288 18.8304V16.8878H90.6298C89.1576 16.8878 88.374 17.41 88.279 18.4544L88.2688 18.632C88.2688 19.008 88.3978 19.3178 88.6555 19.5615C88.9133 19.8053 89.2661 19.9271 89.7139 19.9271ZM105.233 22.0264H102.282V10.7257H105.233V22.0264ZM102.109 7.80128C102.109 7.3487 102.255 6.97619 102.546 6.68374C102.845 6.3913 103.248 6.24509 103.757 6.24509C104.259 6.24509 104.66 6.3913 104.958 6.68374C105.257 6.97619 105.406 7.3487 105.406 7.80128C105.406 8.26083 105.253 8.63683 104.948 8.92926C104.649 9.2217 104.253 9.36793 103.757 9.36793C103.262 9.36793 102.862 9.2217 102.556 8.92926C102.258 8.63683 102.109 8.26083 102.109 7.80128ZM110.372 10.7257L110.464 12.0312C111.251 11.0216 112.305 10.5168 113.628 10.5168C114.795 10.5168 115.664 10.8684 116.234 11.5717C116.803 12.2749 117.095 13.3263 117.109 14.7258V22.0264H114.168V14.7989C114.168 14.1583 114.032 13.6954 113.761 13.4099C113.489 13.1174 113.038 12.9712 112.407 12.9712C111.58 12.9712 110.959 13.3333 110.545 14.0574V22.0264H107.604V10.7257H110.372ZM120.151 22.0264V12.9399H118.513V10.7257H120.151V9.76481C120.151 8.49757 120.504 7.5158 121.21 6.81952C121.922 6.11627 122.916 5.76465 124.191 5.76465C124.599 5.76465 125.097 5.83428 125.687 5.97353L125.657 8.31305C125.412 8.25039 125.114 8.21905 124.761 8.21905C123.656 8.21905 123.102 8.75171 123.102 9.81703V10.7257H125.291V12.9399H123.102V22.0264H120.151ZM126.359 16.2716C126.359 15.1506 126.57 14.1514 126.99 13.2741C127.411 12.3968 128.014 11.7179 128.801 11.2375C129.595 10.757 130.514 10.5168 131.559 10.5168C133.045 10.5168 134.256 10.9833 135.192 11.9163C136.135 12.8494 136.661 14.1166 136.769 15.7181L136.79 16.4909C136.79 18.2246 136.318 19.6172 135.375 20.6686C134.432 21.7131 133.167 22.2352 131.58 22.2352C129.992 22.2352 128.724 21.7131 127.773 20.6686C126.83 19.6242 126.359 18.2038 126.359 16.4074V16.2716ZM129.3 16.4909C129.3 17.5632 129.496 18.3848 129.89 18.9557C130.283 19.5197 130.847 19.8018 131.58 19.8018C132.292 19.8018 132.849 19.5233 133.249 18.9662C133.649 18.4023 133.849 17.5041 133.849 16.2716C133.849 15.2202 133.649 14.4055 133.249 13.8276C132.849 13.2497 132.285 12.9608 131.559 12.9608C130.84 12.9608 130.283 13.2497 129.89 13.8276C129.496 14.3986 129.3 15.2864 129.3 16.4909Z" fill="url(#paint4_linear)"/>
<defs>
<linearGradient id="paint0_linear" x1="15.1346" y1="-5.80881" x2="15.1346" y2="36.372" gradientUnits="userSpaceOnUse">
<stop stop-color="#0066FF"/>
<stop offset="1" stop-color="#5498FF"/>
</linearGradient>
<linearGradient id="paint1_linear" x1="15.1346" y1="-5.80881" x2="15.1346" y2="36.372" gradientUnits="userSpaceOnUse">
<stop stop-color="#0066FF"/>
<stop offset="1" stop-color="#5498FF"/>
</linearGradient>
<linearGradient id="paint2_linear" x1="15.1346" y1="-5.80881" x2="15.1346" y2="36.372" gradientUnits="userSpaceOnUse">
<stop stop-color="#0066FF"/>
<stop offset="1" stop-color="#5498FF"/>
</linearGradient>
<linearGradient id="paint3_linear" x1="15.1346" y1="-5.80881" x2="15.1346" y2="36.372" gradientUnits="userSpaceOnUse">
<stop stop-color="#0066FF"/>
<stop offset="1" stop-color="#5498FF"/>
</linearGradient>
<linearGradient id="paint4_linear" x1="86.8144" y1="2.3477" x2="86.8144" y2="27.16" gradientUnits="userSpaceOnUse">
<stop stop-color="#0066FF"/>
<stop offset="1" stop-color="#5498FF"/>
</linearGradient>
</defs>
</svg>
